<svg width="24" height="24" viewBox="0 0 24 24" fill="none" xmlns="http://www.w3.org/2000/svg">
<path d="M9.87873 11.8119C9.87873 11.8119 11.9607 11.6677 11.9607 9.38979C11.9607 7.11173 10.2574 6 8.09979 6H1V18.7301H8.09979C8.09979 18.7301 12.434 18.8578 12.434 14.9728C12.434 14.9728 12.6229 11.8119 9.87873 11.8119ZM7.58876 8.26263H8.09979C8.09979 8.26263 9.06486 8.26263 9.06486 9.58714C9.06486 10.9115 8.4973 11.1035 7.85353 11.1035H4.12826V8.26263H7.58876ZM7.89917 16.4676H4.12826V13.0656H8.09979C8.09979 13.0656 9.53819 13.048 9.53819 14.8139C9.53819 16.3029 8.46385 16.4563 7.89917 16.4676ZM18.2143 9.23891C12.9673 9.23891 12.972 14.1302 12.972 14.1302C12.972 14.1302 12.612 18.9964 18.2143 18.9964C18.2143 18.9964 22.8829 19.2452 22.8829 15.6113H20.4819C20.4819 15.6113 20.562 16.9798 18.2944 16.9798C18.2944 16.9798 15.893 17.1299 15.893 14.765H22.9629C22.9629 14.765 23.7365 9.23891 18.2143 9.23891ZM15.8666 13.0656C15.8666 13.0656 16.1598 11.1035 18.2677 11.1035C20.375 11.1035 20.3487 13.0656 20.3487 13.0656H15.8666ZM20.908 8.31758H15.2788V6.74997H20.908V8.31758Z" fill="black"/>
</svg>
