<svg width="24" height="24" viewBox="0 0 24 24" fill="none" xmlns="http://www.w3.org/2000/svg">
<g clip-path="url(#clip0_30_283)">
<path d="M3 4.97493C3 4.40253 3.20271 3.9303 3.60811 3.55826C4.01351 3.1862 4.54055 3.00018 5.18919 3.00018C5.82626 3.00018 6.34169 3.18334 6.73552 3.54968C7.14092 3.92745 7.34363 4.4197 7.34363 5.02644C7.34363 5.57594 7.14672 6.03384 6.7529 6.40018C6.3475 6.77795 5.81467 6.96684 5.15444 6.96684H5.13707C4.49999 6.96684 3.98456 6.77795 3.59073 6.40018C3.19691 6.0224 3 5.54731 3 4.97493ZM3.22587 20.0002V8.52947H7.08301V20.0002H3.22587ZM9.22008 20.0002H13.0772V13.5951C13.0772 13.1944 13.1236 12.8853 13.2162 12.6678C13.3784 12.2786 13.6245 11.9495 13.9546 11.6805C14.2847 11.4114 14.6988 11.2769 15.1969 11.2769C16.4942 11.2769 17.1429 12.1412 17.1429 13.8699V20.0002H21V13.4234C21 11.7291 20.5946 10.4441 19.7838 9.56835C18.973 8.6926 17.9016 8.25472 16.5695 8.25472C15.0753 8.25472 13.9112 8.89007 13.0772 10.1608V10.1951H13.0598L13.0772 10.1608V8.52947H9.22008C9.24324 8.89579 9.25483 10.0348 9.25483 11.9466C9.25483 13.8584 9.24324 16.5429 9.22008 20.0002Z" fill="black"/>
</g>
<defs>
<clipPath id="clip0_30_283">
<rect width="18" height="17" fill="white" transform="translate(3 3)"/>
</clipPath>
</defs>
</svg>
